<?xml version="1.0" encoding="UTF-8"?>
<svg width="256px" height="256px" viewBox="0 0 256 256" version="1.1" xmlns="http://www.w3.org/2000/svg" xmlns:xlink="http://www.w3.org/1999/xlink">
    <!-- Generator: Sketch 50.2 (55047) - http://www.bohemiancoding.com/sketch -->
    <title>icon</title>
    <desc>Created with Sketch.</desc>
    <defs></defs>
    <g id="icon" stroke="none" stroke-width="1" fill="none" fill-rule="evenodd">
        <rect id="Rectangle" fill="#191414" x="0" y="0" width="256" height="256"></rect>
        <path d="M178.600524,56.7187313 C196.899988,66.6819752 206.21188,71.7576811 212.000486,81.2722172 C217.985649,91.1003662 217.975821,102.014099 217.961079,124.222724 L217.956165,127.913708 L217.961079,131.595042 C217.975821,153.803668 217.985649,164.722225 212.000486,174.550374 C209.558264,178.564621 206.48706,181.792422 202.374103,184.933377 C195.759957,190.911324 196.08919,183.003451 196.08919,174.043769 L196.08919,147.758174 C196.216952,143.386891 196.212038,138.079594 196.207124,131.595042 L196.20221,127.913708 L196.207124,124.222724 C196.216952,105.989747 196.221866,97.0204148 193.317735,92.2486723 C190.521711,87.6506232 182.934608,83.5157563 168.020839,75.3955919 L162.227319,72.2353378 L158.468165,70.1751416 C142.198153,61.2395834 134.06069,56.7718043 127.962506,56.7718043 C121.780786,56.8152276 113.667893,61.2733571 97.4519337,70.1703168 L93.6927795,72.2353378 L87.8943457,75.4004167 C72.9854912,83.5157563 65.3983879,87.6506232 62.6023635,92.2486723 C59.6982326,97.0252396 59.7031465,105.989747 59.7178883,124.227549 L59.7178883,131.595042 C59.7031465,149.832845 59.6982326,158.797352 62.6023635,163.573919 C65.3983879,168.162319 72.9854912,172.297186 87.8796039,180.41735 L93.6927795,183.587254 L97.4421058,185.642625 C113.667893,194.554059 121.780786,199.007364 127.957592,199.007364 C132.144258,199.007364 137.215431,196.966467 145.087542,192.884673 C154.998933,187.751069 152.404379,181.483634 152.404379,172.258587 L152.404379,144.07684 C152.404379,141.32187 152.443691,142.851337 152.478088,138.793667 C152.586194,125.790789 152.664817,117.501756 142.085132,112.363328 L126.630832,103.977799 C122.016655,101.575041 121.662852,95.3703279 124.203352,90.8157021 C126.557123,86.6036382 132.257278,82.6762385 137.181033,85.2333906 L151.721343,93.1798617 C175.072324,106.747243 174.418772,104.894514 174.232043,138.962536 C174.232043,139.676608 174.241871,137.732208 174.241871,144.07684 L174.241871,184.330275 C174.241871,200.049524 172.748037,202.375085 160.581154,208.956133 C146.384819,216.61794 137.854241,220.453669 127.957592,220.453669 C116.237877,220.453669 106.44442,215.078824 86.862421,204.324311 L83.1130947,202.264114 L77.2999191,199.094211 C59.0151968,189.135792 49.7082191,184.060086 43.9196131,174.550374 C37.9442778,164.722225 37.9491918,153.803668 37.9639336,131.595042 L37.9639336,124.227549 C37.9491918,102.018924 37.9393639,91.1051911 43.9196131,81.2722172 C49.713133,71.7576811 59.0250246,66.6819752 77.3146609,56.7235561 L83.1130947,53.5584772 L86.8722488,51.4934562 C106.449334,40.7485921 116.237877,35.3689229 127.962506,35.3689229 C139.755931,35.4123462 149.529732,40.777541 169.052764,51.4934562 L172.807004,53.5584772 L178.600524,56.7187313 Z" id="Fill-7" fill="#FFFFFF" transform="translate(127.962506, 127.911296) rotate(118.000000) translate(-127.962506, -127.911296) "></path>
    </g>
</svg>