<?xml version="1.0" encoding="UTF-8"?>
<svg width="171px" height="190px" viewBox="0 0 171 190" version="1.1" xmlns="http://www.w3.org/2000/svg" xmlns:xlink="http://www.w3.org/1999/xlink">
    <!-- Generator: Sketch 50.2 (55047) - http://www.bohemiancoding.com/sketch -->
    <title>Fill 7</title>
    <desc>Created with Sketch.</desc>
    <defs></defs>
    <g id="Page-1" stroke="none" stroke-width="1" fill="none" fill-rule="evenodd">
        <g id="Gute-Websites-RBG" transform="translate(-343.000000, -844.000000)" fill="#16E78C">
            <g id="Group" transform="translate(306.000000, 818.000000)">
                <path d="M172.294051,50.9939783 C190.288524,60.7911681 199.445217,65.7822789 205.137347,75.1382394 C211.022757,84.802586 211.013093,95.534423 210.998597,117.372905 L210.993765,121.002372 L210.998597,124.622351 C211.013093,146.460833 211.022757,157.197414 205.137347,166.861761 C202.735829,170.809103 199.715811,173.983108 195.671403,177.071713 C189.167493,182.950027 189.491239,175.173953 189.491239,166.363598 L189.491239,140.516097 C189.616872,136.217669 189.61204,130.998827 189.607208,124.622351 L189.602376,121.002372 L189.607208,117.372905 C189.616872,99.4438101 189.621704,90.623967 186.765975,85.9317536 C184.016551,81.4103386 176.5559,77.3443862 161.890694,69.3595579 L156.193733,66.2519747 L152.497231,64.2261151 C136.498386,55.4394828 128.496547,51.0461667 122.5,51.0461667 C116.421309,51.0888663 108.44363,55.4726936 92.4979372,64.2213707 L88.8014356,66.2519747 L83.0996423,69.3643023 C68.4392687,77.3443862 60.9786172,81.4103386 58.2291931,85.9317536 C55.3734645,90.6287115 55.3782965,99.4438101 55.3927926,117.377649 L55.3927926,124.622351 C55.3782965,142.55619 55.3734645,151.371289 58.2291931,156.068246 C60.9786172,160.580173 68.4392687,164.646125 83.0851462,172.630953 L88.8014356,175.748025 L92.4882731,177.769141 C108.44363,186.532051 116.421309,190.911134 122.495168,190.911134 C126.612056,190.911134 131.598709,188.904252 139.339619,184.890488 C149.085819,179.842444 146.534509,173.679466 146.534509,164.60817 L146.534509,136.896118 C146.534509,134.187065 146.573165,135.69104 146.606989,131.700998 C146.713294,118.914835 146.790606,110.763953 136.387249,105.711165 L121.190521,97.4653945 C116.653246,95.1026824 116.30534,89.0013816 118.803499,84.5226662 C121.11804,80.3808034 126.723193,76.5188603 131.564885,79.0333933 L145.862857,86.8474232 C168.824655,100.188681 168.181995,98.3668309 167.998378,131.867052 C167.998378,132.569224 168.008042,130.65723 168.008042,136.896118 L168.008042,176.478663 C168.008042,191.935925 166.539105,194.222726 154.575003,200.69409 C140.615274,208.228201 132.226873,212 122.495168,212 C110.970781,212 101.340549,206.714736 82.0849164,196.139465 L78.3980789,194.113605 L72.6817895,190.996533 C54.7018126,181.204087 45.5499511,176.212977 39.8578219,166.861761 C33.9820756,157.197414 33.9869077,146.460833 34.0014037,124.622351 L34.0014037,117.377649 C33.9869077,95.5391674 33.9772436,84.8073304 39.8578219,75.1382394 C45.5547832,65.7822789 54.7114766,60.7911681 72.6962856,50.9987227 L78.3980789,47.886395 L82.0945804,45.855791 C101.345381,35.2900081 110.970781,30 122.5,30 C134.096868,30.0426996 143.707772,35.3184745 162.90542,45.855791 L166.59709,47.886395 L172.294051,50.9939783 Z" id="Fill-7" transform="translate(122.500000, 121.000000) rotate(118.000000) translate(-122.500000, -121.000000) "></path>
            </g>
        </g>
    </g>
</svg>